<svg id="Capa_1" data-name="Capa 1" xmlns="http://www.w3.org/2000/svg" viewBox="0 0 80.65 27.68"><defs><style>.cls-1,.cls-2{font-size:18px;font-family:Raleway;font-style:italic;}.cls-1{fill:#5fa199;}.cls-2{fill:#5b5b5f;}.cls-3{fill:none;stroke-width:2px;}.cls-3,.cls-4{stroke:#5b5b5f;stroke-miterlimit:10;}.cls-4{fill:#272727;}</style></defs><title>logo-min</title><text class="cls-1" transform="translate(0 21.7)">N<tspan x="13.18" y="0">e</tspan><tspan x="22.7" y="0">t</tspan></text><text class="cls-2" transform="translate(44.27 21.7)">Sa<tspan x="21.29" y="0">f</tspan><tspan x="26.77" y="0">e</tspan></text><polyline class="cls-3" points="33.34 10.07 31.27 26.68 42.28 26.68 40.2 10.07"/><path class="cls-4" d="M105.38,84.06a6,6,0,0,0-6.15,5.89,5.84,5.84,0,0,0,3,5V94a5.05,5.05,0,0,1-2.17-4.1,5.38,5.38,0,0,1,10.74,0,5.05,5.05,0,0,1-2.17,4.1V95a5.84,5.84,0,0,0,3-5A6,6,0,0,0,105.38,84.06Z" transform="translate(-68.61 -83.56)"/></svg>